<svg width="63" height="54" viewBox="0 0 63 54" fill="none" xmlns="http://www.w3.org/2000/svg">
<g id="3des_3des logo" clip-path="url(#clip0_502_1420)">
<path id="Vector" d="M31.5 54C48.897 54 63 41.9117 63 27C63 12.0883 48.897 0 31.5 0C14.103 0 0 12.0883 0 27C0 41.9117 14.103 54 31.5 54Z" fill="#2D598A"/>
<path id="Vector_2" d="M34.7425 25.132C36.7979 25.4965 38.3749 26.2204 39.4734 27.3038C40.572 28.3871 41.1213 29.6983 41.1213 31.2373C41.1213 32.4928 40.7255 33.6572 39.9341 34.7305C39.1427 35.8037 37.9378 36.6694 36.3195 37.3275C34.7012 37.9856 32.699 38.3147 30.3128 38.3147C28.5646 38.3147 26.834 38.1325 25.1212 37.768C23.4084 37.4035 21.926 36.8871 20.6738 36.2188L23.2253 31.693C24.194 32.26 25.2866 32.6953 26.5033 32.9991C27.72 33.3028 28.919 33.4547 30.1002 33.4547C31.3051 33.4547 32.2619 33.2623 32.9706 32.8776C33.6794 32.4928 34.0338 31.9461 34.0338 31.2373C34.0338 29.8603 32.7698 29.1718 30.242 29.1718H27.3006V25.375L31.7303 21.2743H21.9496V16.627H39.881V20.3935L34.7425 25.132Z" fill="white"/>
</g>
<defs>
<clipPath id="clip0_502_1420">
<rect width="63" height="54" fill="white"/>
</clipPath>
</defs>
</svg>
