<?xml version="1.0" encoding="iso-8859-1"?>
<!-- Uploaded to: SVG Repo, www.svgrepo.com, Generator: SVG Repo Mixer Tools -->
<svg fill="#000000" height="800px" width="800px" version="1.1" id="Capa_1" xmlns="http://www.w3.org/2000/svg" xmlns:xlink="http://www.w3.org/1999/xlink" 
	 viewBox="0 0 60 60" xml:space="preserve">
<g>
	<g>
		<path d="M59,11.5h-6v2h5v4h-5v2h5v37H2v-37h5v-2H2v-4h5v-2H1c-0.6,0-1,0.4-1,1v45c0,0.6,0.4,1,1,1h58c0.6,0,1-0.4,1-1v-45
			C60,11.9,59.6,11.5,59,11.5z"/>
		<path d="M6,45.5v2h48v-2h-3v-43c0-0.6-0.4-1-1-1H10c-0.6,0-1,0.4-1,1v43H6z M43,45.5H17v-14h26V45.5z M11,3.5h7v3h-2v2h6v-2h-2v-3
			h9v3h-2v2h6v-2h-2v-3h9v3h-2v2h6v-2h-2v-3h7v42h-4v-14h2v-2h-3H16h-3v2h2v14h-4V3.5z"/>
		<path d="M17,20.5h5v6h2v-14c0-0.6-0.4-1-1-1h-7c-0.6,0-1,0.4-1,1v14h2V20.5z M22,13.5v5h-5v-5H22z"/>
		<path d="M27,26.5h4.5c1.4,0,2.5-1.3,2.5-3v-9c0-1.7-1.1-3-2.5-3H27c-0.6,0-1,0.4-1,1v13C26,26.1,26.4,26.5,27,26.5z M28,13.5h3.5
			c0.1,0,0.5,0.4,0.5,1v9c0,0.6-0.4,1-0.5,1H28V13.5z"/>
		<path d="M40,26.5h1c2.2,0,4-1.8,4-4v-1c0-2.2-1.8-4-4-4h-1c-1.1,0-2-0.7-2-1.6V15c0-0.9,0.9-1.6,2-1.6h1c1.1,0,2,0.7,2,1.6v0.5h2
			V15c0-2-1.8-3.6-4-3.6h-1c-2.2,0-4,1.6-4,3.6v0.9c0,2,1.8,3.6,4,3.6h1c1.1,0,2,0.9,2,2v1c0,1.1-0.9,2-2,2h-1c-1.1,0-2-0.9-2-2v-1
			h-2v1C36,24.7,37.8,26.5,40,26.5z"/>
	</g>
</g>
</svg>